<?xml version="1.0" encoding="us-ascii" standalone="no"?><svg xmlns="http://www.w3.org/2000/svg" xmlns:xlink="http://www.w3.org/1999/xlink" contentStyleType="text/css" height="239px" preserveAspectRatio="none" style="width:314px;height:239px;background:#FFFFFF;" version="1.1" viewBox="0 0 314 239" width="314px" zoomAndPan="magnify"><defs/><g><!--cluster Docker Compose--><g id="cluster_Docker Compose"><polygon fill="none" points="16,16,26,6,297,6,297,212,287,222,16,222,16,16" style="stroke:#181818;stroke-width:1.0;"/><line style="stroke:#181818;stroke-width:1.0;" x1="287" x2="297" y1="16" y2="6"/><line style="stroke:#181818;stroke-width:1.0;" x1="16" x2="287" y1="16" y2="16"/><line style="stroke:#181818;stroke-width:1.0;" x1="287" x2="287" y1="16" y2="222"/><text fill="#000000" font-family="sans-serif" font-size="14" font-weight="bold" lengthAdjust="spacing" textLength="120" x="92.5" y="34.1074">Docker Compose</text></g><!--entity "Gateway"--><g id="elem_&quot;Gateway&quot;"><rect fill="#F1F1F1" height="48.6211" rx="2.5" ry="2.5" style="stroke:#181818;stroke-width:0.5;" width="105" x="104.5" y="48"/><rect fill="#F1F1F1" height="10" style="stroke:#181818;stroke-width:0.5;" width="15" x="189.5" y="53"/><rect fill="#F1F1F1" height="2" style="stroke:#181818;stroke-width:0.5;" width="4" x="187.5" y="55"/><rect fill="#F1F1F1" height="2" style="stroke:#181818;stroke-width:0.5;" width="4" x="187.5" y="59"/><text fill="#000000" font-family="sans-serif" font-size="14" lengthAdjust="spacing" textLength="65" x="119.5" y="83.1074">"Gateway"</text></g><!--entity "Frontend"--><g id="elem_&quot;Frontend&quot;"><rect fill="#F1F1F1" height="48.6211" rx="2.5" ry="2.5" style="stroke:#181818;stroke-width:0.5;" width="108" x="32" y="157"/><rect fill="#F1F1F1" height="10" style="stroke:#181818;stroke-width:0.5;" width="15" x="120" y="162"/><rect fill="#F1F1F1" height="2" style="stroke:#181818;stroke-width:0.5;" width="4" x="118" y="164"/><rect fill="#F1F1F1" height="2" style="stroke:#181818;stroke-width:0.5;" width="4" x="118" y="168"/><text fill="#000000" font-family="sans-serif" font-size="14" lengthAdjust="spacing" textLength="68" x="47" y="192.1074">"Frontend"</text></g><!--entity "Backend"--><g id="elem_&quot;Backend&quot;"><rect fill="#F1F1F1" height="48.6211" rx="2.5" ry="2.5" style="stroke:#181818;stroke-width:0.5;" width="105" x="175.5" y="157"/><rect fill="#F1F1F1" height="10" style="stroke:#181818;stroke-width:0.5;" width="15" x="260.5" y="162"/><rect fill="#F1F1F1" height="2" style="stroke:#181818;stroke-width:0.5;" width="4" x="258.5" y="164"/><rect fill="#F1F1F1" height="2" style="stroke:#181818;stroke-width:0.5;" width="4" x="258.5" y="168"/><text fill="#000000" font-family="sans-serif" font-size="14" lengthAdjust="spacing" textLength="65" x="190.5" y="192.1074">"Backend"</text></g><!--link "Gateway" to "Frontend"--><g id="link_&quot;Gateway&quot;_&quot;Frontend&quot;"><path d="M141.24,97.25 C129.48,114.98 116.7878,134.1008 105.0278,151.8208 " fill="none" id="&quot;Gateway&quot;-to-&quot;Frontend&quot;" style="stroke:#181818;stroke-width:1.0;"/><polygon fill="#181818" points="101.71,156.82,110.0195,151.533,104.4748,152.654,103.3538,147.1093,101.71,156.82" style="stroke:#181818;stroke-width:1.0;"/></g><!--link "Gateway" to "Backend"--><g id="link_&quot;Gateway&quot;_&quot;Backend&quot;"><path d="M172.76,97.25 C184.52,114.98 197.2122,134.1008 208.9722,151.8208 " fill="none" id="&quot;Gateway&quot;-to-&quot;Backend&quot;" style="stroke:#181818;stroke-width:1.0;"/><polygon fill="#181818" points="212.29,156.82,210.6462,147.1093,209.5252,152.654,203.9805,151.533,212.29,156.82" style="stroke:#181818;stroke-width:1.0;"/></g><!--link "Frontend" to "Backend"--><g id="link_&quot;Frontend&quot;_&quot;Backend&quot;"><path d="M140.08,181.5 C151.87,181.5 157.66,181.5 169.46,181.5 " fill="none" id="&quot;Frontend&quot;-to-&quot;Backend&quot;" style="stroke:#181818;stroke-width:1.0;"/><polygon fill="#181818" points="175.46,181.5,166.46,177.5,170.46,181.5,166.46,185.5,175.46,181.5" style="stroke:#181818;stroke-width:1.0;"/></g><!--SRC=[oyjFILLGSibFpaujKd3Epot8BqvLKgZcKW22Q2Ntn9BKyiHAfLW5tI9TEw20Mr5-NabgNefIBAQA5B0AfqIWKKWA43eKqEHh0G00]--></g></svg>