<?xml version="1.0" encoding="us-ascii" standalone="no"?><svg xmlns="http://www.w3.org/2000/svg" xmlns:xlink="http://www.w3.org/1999/xlink" contentStyleType="text/css" height="1487px" preserveAspectRatio="none" style="width:641px;height:1487px;background:#FFFFFF;" version="1.1" viewBox="0 0 641 1487" width="641px" zoomAndPan="magnify"><defs><filter height="1" id="bylqybl780fmr0" width="1" x="0" y="0"><feFlood flood-color="#DDA0DD" result="flood"/><feComposite in="SourceGraphic" in2="flood" operator="over"/></filter></defs><g><rect fill="#ADD8E6" height="213.7461" style="stroke:#ADD8E6;stroke-width:1.0;" width="512" x="88" y="1095.6426"/><rect fill="#FFC0CB" height="56.9219" style="stroke:#FFC0CB;stroke-width:1.0;" width="512" x="88" y="1309.3887"/><line style="stroke:#181818;stroke-width:0.5;stroke-dasharray:5.0,5.0;" x1="104" x2="104" y1="83.6211" y2="1404.3105"/><line style="stroke:#181818;stroke-width:0.5;stroke-dasharray:5.0,5.0;" x1="276" x2="276" y1="83.6211" y2="1404.3105"/><line style="stroke:#181818;stroke-width:0.5;stroke-dasharray:5.0,5.0;" x1="499" x2="499" y1="83.6211" y2="1404.3105"/><rect fill="#FFFFFF" height="75.582" style="stroke:#181818;stroke-width:1.0;" width="10" x="494" y="191.4941"/><rect fill="#FFFFFF" height="92.873" style="stroke:#181818;stroke-width:1.0;" width="10" x="494" y="331.6582"/><rect fill="#FFFFFF" height="127.4551" style="stroke:#181818;stroke-width:1.0;" width="10" x="494" y="616.9863"/><rect fill="#FFFFFF" height="92.873" style="stroke:#181818;stroke-width:1.0;" width="10" x="494" y="990.7695"/><rect fill="#FFFFFF" height="75.582" style="stroke:#181818;stroke-width:1.0;" width="10" x="494" y="1214.8066"/><text fill="#000000" font-family="sans-serif" font-size="14" lengthAdjust="spacing" textLength="29" x="86.5" y="80.1074">User</text><ellipse cx="104" cy="13.5" fill="#E2E2F0" rx="8" ry="8" style="stroke:#181818;stroke-width:0.5;"/><path d="M104,21.5 L104,48.5 M91,29.5 L117,29.5 M104,48.5 L91,63.5 M104,48.5 L117,63.5 " fill="none" style="stroke:#181818;stroke-width:0.5;"/><text fill="#000000" font-family="sans-serif" font-size="14" lengthAdjust="spacing" textLength="37" x="254.5" y="61.4863">React</text><text fill="#000000" font-family="sans-serif" font-size="14" lengthAdjust="spacing" textLength="58" x="244" y="80.1074">Frontend</text><path d="M255.5,18.3789 L255.5,42.3789 M255.5,30.3789 L272.5,30.3789 " fill="none" style="stroke:#181818;stroke-width:0.5;"/><ellipse cx="284.5" cy="30.3789" fill="#E2E2F0" rx="12" ry="12" style="stroke:#181818;stroke-width:0.5;"/><rect fill="#E2E2F0" height="32.6211" rx="2.5" ry="2.5" style="stroke:#181818;stroke-width:0.5;" width="69" x="464.5" y="50"/><text fill="#000000" font-family="sans-serif" font-size="14" lengthAdjust="spacing" textLength="55" x="471.5" y="72.1074">Backend</text><text fill="#000000" font-family="sans-serif" font-size="14" lengthAdjust="spacing" textLength="29" x="86.5" y="1479.418">User</text><ellipse cx="104" cy="1412.8105" fill="#E2E2F0" rx="8" ry="8" style="stroke:#181818;stroke-width:0.5;"/><path d="M104,1420.8105 L104,1447.8105 M91,1428.8105 L117,1428.8105 M104,1447.8105 L91,1462.8105 M104,1447.8105 L117,1462.8105 " fill="none" style="stroke:#181818;stroke-width:0.5;"/><text fill="#000000" font-family="sans-serif" font-size="14" lengthAdjust="spacing" textLength="37" x="254.5" y="1451.418">React</text><text fill="#000000" font-family="sans-serif" font-size="14" lengthAdjust="spacing" textLength="58" x="244" y="1470.0391">Frontend</text><path d="M255.5,1408.3105 L255.5,1432.3105 M255.5,1420.3105 L272.5,1420.3105 " fill="none" style="stroke:#181818;stroke-width:0.5;"/><ellipse cx="284.5" cy="1420.3105" fill="#E2E2F0" rx="12" ry="12" style="stroke:#181818;stroke-width:0.5;"/><rect fill="#E2E2F0" height="32.6211" rx="2.5" ry="2.5" style="stroke:#181818;stroke-width:0.5;" width="69" x="464.5" y="1404.3105"/><text fill="#000000" font-family="sans-serif" font-size="14" lengthAdjust="spacing" textLength="55" x="471.5" y="1426.418">Backend</text><rect fill="#EEEEEE" height="3" style="stroke:#EEEEEE;stroke-width:1.0;" width="629" x="5" y="113.2666"/><line style="stroke:#000000;stroke-width:1.0;" x1="5" x2="634" y1="113.2666" y2="113.2666"/><line style="stroke:#000000;stroke-width:1.0;" x1="5" x2="634" y1="116.2666" y2="116.2666"/><rect fill="#EEEEEE" height="25.291" style="stroke:#000000;stroke-width:2.0;" width="86" x="276.5" y="101.6211"/><text fill="#000000" font-family="sans-serif" font-size="13" font-weight="bold" lengthAdjust="spacing" textLength="68" x="282.5" y="119.6494">Dashboard</text><polygon fill="#181818" points="264,156.2031,274,160.2031,264,164.2031,268,160.2031" style="stroke:#181818;stroke-width:1.0;"/><line style="stroke:#181818;stroke-width:1.0;" x1="104" x2="270" y1="160.2031" y2="160.2031"/><text fill="#000000" font-family="sans-serif" font-size="13" lengthAdjust="spacing" textLength="34" x="173" y="154.9404">GET /</text><polygon fill="#181818" points="482,187.4941,492,191.4941,482,195.4941,486,191.4941" style="stroke:#181818;stroke-width:1.0;"/><line style="stroke:#181818;stroke-width:1.0;" x1="276" x2="488" y1="191.4941" y2="191.4941"/><text fill="#000000" font-family="sans-serif" font-size="13" lengthAdjust="spacing" textLength="94" x="338" y="186.2314">GET /api/games</text><line style="stroke:#181818;stroke-width:1.0;" x1="504" x2="546" y1="222.7852" y2="222.7852"/><line style="stroke:#181818;stroke-width:1.0;" x1="546" x2="546" y1="222.7852" y2="235.7852"/><line style="stroke:#181818;stroke-width:1.0;" x1="505" x2="546" y1="235.7852" y2="235.7852"/><polygon fill="#181818" points="515,231.7852,505,235.7852,515,239.7852,511,235.7852" style="stroke:#181818;stroke-width:1.0;"/><text fill="#000000" font-family="sans-serif" font-size="13" lengthAdjust="spacing" textLength="61" x="511" y="217.5225">get games</text><polygon fill="#181818" points="287,263.0762,277,267.0762,287,271.0762,283,267.0762" style="stroke:#181818;stroke-width:1.0;"/><line style="stroke:#181818;stroke-width:1.0;" x1="281" x2="493" y1="267.0762" y2="267.0762"/><text fill="#000000" filter="url(#bylqybl780fmr0)" font-family="sans-serif" font-size="13" lengthAdjust="spacing" textLength="39" x="365.5" y="261.8135">games</text><path d="M260,279.0762 L333,279.0762 L333,288.3672 L323,298.3672 L260,298.3672 L260,279.0762 " fill="#EEEEEE" style="stroke:#000000;stroke-width:1.5;"/><rect fill="none" height="153.4551" style="stroke:#000000;stroke-width:1.5;" width="335" x="260" y="279.0762"/><text fill="#000000" font-family="sans-serif" font-size="13" font-weight="bold" lengthAdjust="spacing" textLength="28" x="275" y="294.1045">loop</text><text fill="#000000" font-family="sans-serif" font-size="11" font-weight="bold" lengthAdjust="spacing" textLength="84" x="348" y="292.9463">[games.length]</text><polygon fill="#181818" points="482,327.6582,492,331.6582,482,335.6582,486,331.6582" style="stroke:#181818;stroke-width:1.0;"/><line style="stroke:#181818;stroke-width:1.0;" x1="276" x2="488" y1="331.6582" y2="331.6582"/><text fill="#000000" font-family="sans-serif" font-size="13" lengthAdjust="spacing" textLength="185" x="292.5" y="326.3955">GET /api/games/&lt;game_name&gt;</text><line style="stroke:#181818;stroke-width:1.0;" x1="504" x2="546" y1="380.2402" y2="380.2402"/><line style="stroke:#181818;stroke-width:1.0;" x1="546" x2="546" y1="380.2402" y2="393.2402"/><line style="stroke:#181818;stroke-width:1.0;" x1="505" x2="546" y1="393.2402" y2="393.2402"/><polygon fill="#181818" points="515,389.2402,505,393.2402,515,397.2402,511,393.2402" style="stroke:#181818;stroke-width:1.0;"/><text fill="#000000" font-family="sans-serif" font-size="13" lengthAdjust="spacing" textLength="54" x="514.5" y="357.6865">construct</text><text fill="#000000" font-family="sans-serif" font-size="13" lengthAdjust="spacing" textLength="61" x="511" y="374.9775">game card</text><polygon fill="#181818" points="287,420.5313,277,424.5313,287,428.5313,283,424.5313" style="stroke:#181818;stroke-width:1.0;"/><line style="stroke:#181818;stroke-width:1.0;" x1="281" x2="493" y1="424.5313" y2="424.5313"/><text fill="#000000" filter="url(#bylqybl780fmr0)" font-family="sans-serif" font-size="13" lengthAdjust="spacing" textLength="64" x="353" y="419.2686">game_card</text><rect fill="#FEFFDD" height="25" style="stroke:#181818;stroke-width:0.5;" width="108" x="222" y="451.5313"/><text fill="#000000" font-family="sans-serif" font-size="13" lengthAdjust="spacing" textLength="100" x="226" y="469.5596">render dashboard</text><rect fill="#EEEEEE" height="3" style="stroke:#EEEEEE;stroke-width:1.0;" width="629" x="5" y="503.4678"/><line style="stroke:#000000;stroke-width:1.0;" x1="5" x2="634" y1="503.4678" y2="503.4678"/><line style="stroke:#000000;stroke-width:1.0;" x1="5" x2="634" y1="506.4678" y2="506.4678"/><rect fill="#EEEEEE" height="25.291" style="stroke:#000000;stroke-width:2.0;" width="90" x="274.5" y="491.8223"/><text fill="#000000" font-family="sans-serif" font-size="13" font-weight="bold" lengthAdjust="spacing" textLength="72" x="280.5" y="509.8506">Start Game</text><rect fill="#FEFFDD" height="25" style="stroke:#181818;stroke-width:0.5;" width="128" x="40" y="532.1133"/><text fill="#000000" font-family="sans-serif" font-size="13" lengthAdjust="spacing" textLength="120" x="44" y="550.1416">clicks on game_card</text><polygon fill="#181818" points="264,581.6953,274,585.6953,264,589.6953,268,585.6953" style="stroke:#181818;stroke-width:1.0;"/><line style="stroke:#181818;stroke-width:1.0;" x1="104" x2="270" y1="585.6953" y2="585.6953"/><text fill="#000000" font-family="sans-serif" font-size="13" lengthAdjust="spacing" textLength="148" x="116" y="580.4326">GET /new/&lt;game_name&gt;</text><polygon fill="#181818" points="482,612.9863,492,616.9863,482,620.9863,486,616.9863" style="stroke:#181818;stroke-width:1.0;"/><line style="stroke:#181818;stroke-width:1.0;" x1="276" x2="488" y1="616.9863" y2="616.9863"/><text fill="#000000" font-family="sans-serif" font-size="13" lengthAdjust="spacing" textLength="194" x="288" y="611.7236">POST /api/games/&lt;game_name&gt;</text><line style="stroke:#181818;stroke-width:1.0;" x1="504" x2="546" y1="700.1504" y2="700.1504"/><line style="stroke:#181818;stroke-width:1.0;" x1="546" x2="546" y1="700.1504" y2="713.1504"/><line style="stroke:#181818;stroke-width:1.0;" x1="505" x2="546" y1="713.1504" y2="713.1504"/><polygon fill="#181818" points="515,709.1504,505,713.1504,515,717.1504,511,713.1504" style="stroke:#181818;stroke-width:1.0;"/><text fill="#000000" font-family="sans-serif" font-size="13" lengthAdjust="spacing" textLength="60" x="528" y="643.0146">instantiate</text><text fill="#000000" font-family="sans-serif" font-size="13" lengthAdjust="spacing" textLength="59" x="528.5" y="660.3057">new game</text><text fill="#000000" font-family="sans-serif" font-size="13" lengthAdjust="spacing" textLength="4" x="556" y="677.5967">&#160;</text><text fill="#000000" font-family="sans-serif" font-size="13" lengthAdjust="spacing" textLength="94" x="511" y="694.8877">+ game url/hash</text><polygon fill="#181818" points="287,740.4414,277,744.4414,287,748.4414,283,744.4414" style="stroke:#181818;stroke-width:1.0;"/><line style="stroke:#181818;stroke-width:1.0;" x1="281" x2="493" y1="744.4414" y2="744.4414"/><text fill="#000000" filter="url(#bylqybl780fmr0)" font-family="sans-serif" font-size="13" lengthAdjust="spacing" textLength="64" x="353" y="739.1787">game_data</text><rect fill="#FEFFDD" height="25" style="stroke:#181818;stroke-width:0.5;" width="120" x="216" y="757.4414"/><text fill="#000000" font-family="sans-serif" font-size="13" lengthAdjust="spacing" textLength="112" x="220" y="775.4697">render invite screen</text><rect fill="#FEFFDD" height="59" style="stroke:#181818;stroke-width:0.5;" width="188" x="10" y="792.7324"/><text fill="#000000" font-family="sans-serif" font-size="13" lengthAdjust="spacing" textLength="180" x="14" y="810.7607">- sends second &lt;player_url&gt; to</text><text fill="#000000" font-family="sans-serif" font-size="13" lengthAdjust="spacing" textLength="106" x="14" y="828.0518">second participant</text><text fill="#000000" font-family="sans-serif" font-size="13" lengthAdjust="spacing" textLength="123" x="14" y="845.3428">- clicks "Start Game"</text><rect fill="#EEEEEE" height="3" style="stroke:#EEEEEE;stroke-width:1.0;" width="629" x="5" y="879.251"/><line style="stroke:#000000;stroke-width:1.0;" x1="5" x2="634" y1="879.251" y2="879.251"/><line style="stroke:#000000;stroke-width:1.0;" x1="5" x2="634" y1="882.251" y2="882.251"/><rect fill="#EEEEEE" height="25.291" style="stroke:#000000;stroke-width:2.0;" width="88" x="275.5" y="867.6055"/><text fill="#000000" font-family="sans-serif" font-size="13" font-weight="bold" lengthAdjust="spacing" textLength="70" x="281.5" y="885.6338">Play Game</text><polygon fill="#181818" points="264,922.1875,274,926.1875,264,930.1875,268,926.1875" style="stroke:#181818;stroke-width:1.0;"/><line style="stroke:#181818;stroke-width:1.0;" x1="104" x2="270" y1="926.1875" y2="926.1875"/><text fill="#000000" font-family="sans-serif" font-size="13" lengthAdjust="spacing" textLength="134" x="123" y="920.9248">GET /play/&lt;player_url&gt;</text><path d="M69,938.1875 L142,938.1875 L142,947.4785 L132,957.4785 L69,957.4785 L69,938.1875 " fill="#EEEEEE" style="stroke:#000000;stroke-width:1.5;"/><rect fill="none" height="442.123" style="stroke:#000000;stroke-width:1.5;" width="556" x="69" y="938.1875"/><text fill="#000000" font-family="sans-serif" font-size="13" font-weight="bold" lengthAdjust="spacing" textLength="28" x="84" y="953.2158">loop</text><text fill="#000000" font-family="sans-serif" font-size="11" font-weight="bold" lengthAdjust="spacing" textLength="141" x="157" y="952.0576">[while game not finished]</text><polygon fill="#181818" points="482,986.7695,492,990.7695,482,994.7695,486,990.7695" style="stroke:#181818;stroke-width:1.0;"/><line style="stroke:#181818;stroke-width:1.0;" x1="276" x2="488" y1="990.7695" y2="990.7695"/><text fill="#000000" font-family="sans-serif" font-size="13" lengthAdjust="spacing" textLength="170" x="300" y="985.5068">GET /api/games/&lt;player_url&gt;</text><line style="stroke:#181818;stroke-width:1.0;" x1="504" x2="546" y1="1039.3516" y2="1039.3516"/><line style="stroke:#181818;stroke-width:1.0;" x1="546" x2="546" y1="1039.3516" y2="1052.3516"/><line style="stroke:#181818;stroke-width:1.0;" x1="505" x2="546" y1="1052.3516" y2="1052.3516"/><polygon fill="#181818" points="515,1048.3516,505,1052.3516,515,1056.3516,511,1052.3516" style="stroke:#181818;stroke-width:1.0;"/><text fill="#000000" font-family="sans-serif" font-size="13" lengthAdjust="spacing" textLength="54" x="511" y="1016.7979">get game</text><text fill="#000000" font-family="sans-serif" font-size="13" lengthAdjust="spacing" textLength="29" x="523.5" y="1034.0889">state</text><polygon fill="#181818" points="287,1079.6426,277,1083.6426,287,1087.6426,283,1083.6426" style="stroke:#181818;stroke-width:1.0;"/><line style="stroke:#181818;stroke-width:1.0;stroke-dasharray:2.0,2.0;" x1="281" x2="493" y1="1083.6426" y2="1083.6426"/><text fill="#000000" filter="url(#bylqybl780fmr0)" font-family="sans-serif" font-size="13" lengthAdjust="spacing" textLength="68" x="351" y="1078.3799">game_state</text><path d="M88,1095.6426 L149,1095.6426 L149,1104.9336 L139,1114.9336 L88,1114.9336 L88,1095.6426 " fill="#FFD700" style="stroke:#000000;stroke-width:1.5;"/><rect fill="none" height="270.668" style="stroke:#000000;stroke-width:1.5;" width="512" x="88" y="1095.6426"/><text fill="#000000" font-family="sans-serif" font-size="13" font-weight="bold" lengthAdjust="spacing" textLength="16" x="103" y="1110.6709">alt</text><text fill="#000000" font-family="sans-serif" font-size="11" font-weight="bold" lengthAdjust="spacing" textLength="62" x="164" y="1109.5127">[your_turn]</text><line style="stroke:#000000;stroke-width:1.0;stroke-dasharray:2.0,2.0;" x1="88" x2="600" y1="1309.3887" y2="1309.3887"/><text fill="#000000" font-family="sans-serif" font-size="11" font-weight="bold" lengthAdjust="spacing" textLength="65" x="93" y="1323.2588">[!your_turn]</text><rect fill="#FEFFDD" height="25" style="stroke:#181818;stroke-width:0.5;" width="110" x="221" y="1129.9336"/><text fill="#000000" font-family="sans-serif" font-size="13" lengthAdjust="spacing" textLength="102" x="225" y="1147.9619">enable interaction</text><polygon fill="#181818" points="264,1179.5156,274,1183.5156,264,1187.5156,268,1183.5156" style="stroke:#181818;stroke-width:1.0;"/><line style="stroke:#181818;stroke-width:1.0;" x1="104" x2="270" y1="1183.5156" y2="1183.5156"/><text fill="#000000" font-family="sans-serif" font-size="13" lengthAdjust="spacing" textLength="60" x="160" y="1178.2529">Interaction</text><polygon fill="#181818" points="482,1210.8066,492,1214.8066,482,1218.8066,486,1214.8066" style="stroke:#181818;stroke-width:1.0;"/><line style="stroke:#181818;stroke-width:1.0;stroke-dasharray:2.0,2.0;" x1="276" x2="488" y1="1214.8066" y2="1214.8066"/><text fill="#000000" font-family="sans-serif" font-size="13" lengthAdjust="spacing" textLength="169" x="300.5" y="1209.5439">PUT /api/games/&lt;player_url&gt;</text><line style="stroke:#181818;stroke-width:1.0;" x1="504" x2="546" y1="1246.0977" y2="1246.0977"/><line style="stroke:#181818;stroke-width:1.0;" x1="546" x2="546" y1="1246.0977" y2="1259.0977"/><line style="stroke:#181818;stroke-width:1.0;" x1="505" x2="546" y1="1259.0977" y2="1259.0977"/><polygon fill="#181818" points="515,1255.0977,505,1259.0977,515,1263.0977,511,1259.0977" style="stroke:#181818;stroke-width:1.0;"/><text fill="#000000" font-family="sans-serif" font-size="13" lengthAdjust="spacing" textLength="66" x="511" y="1240.835">valid move?</text><polygon fill="#181818" points="287,1286.3887,277,1290.3887,287,1294.3887,283,1290.3887" style="stroke:#181818;stroke-width:1.0;"/><line style="stroke:#181818;stroke-width:1.0;stroke-dasharray:2.0,2.0;" x1="281" x2="493" y1="1290.3887" y2="1290.3887"/><text fill="#000000" font-family="sans-serif" font-size="13" lengthAdjust="spacing" textLength="141" x="314.5" y="1285.126">HTTP reponse move ok?</text><rect fill="#FEFFDD" height="25" style="stroke:#181818;stroke-width:0.5;" width="110" x="221" y="1336.0195"/><text fill="#000000" font-family="sans-serif" font-size="13" lengthAdjust="spacing" textLength="102" x="225" y="1354.0479">render watch-only</text><!--SRC=[bLHDZzem4BtxLyp24QMvHq3LLLjQgLLHbxqX8PDC4mjddDeEYFxwZiF71iBN7aY2vysRyNjZFrLMvgK4Z-OVU5kZS2j5bRIo18T_QwGKVw9pCiTFMkK4AP97AuHClR7mwlXxQMhAfDr2xpVoyfo-MiCWodg2YRnALIN9mxDCLxmen6W4dwKhbaRQ34OZ4KWW6dVJ8O79bnd4eXjX-9vlC3Z0PANYN9Ren3xKGYMGeuTEj4CSHGaCbmn8AbsNuoPX68U5iH3Qc6h7yK4ZvRuG0EziBHw6ruBuCURiIuscXXmx4KW35bAMwHJwIDUBa7ReFCXkoNW4isQjE_a9M7vn93luqhZquja-c8GcsAOMGN2C6zKgNJam1CU2zxqat9neS5k_1AQ_NgxgTqaznUBnj2dfSKvShEbjJdCQD5zGMnqNlCkxKz0HD9DU7aVX8JKLhHMZN6eHIPmBo9v6VCOeS_naqpCOLbfkqIwunp5umu1ze7MCcgozyhqtWth1OmW56kUcJ7GqxhufeMxShhuRzKsXDEvaOsRueqYv0hExdfsFV9luyimV3kSykCTxQA4UzgV9F1W48BNlJupEeFz3vOL_rZN2rjHsuMjB70UuxI6INFBkLRZkEARCBkcgbWbyFuDUaEbijbzlwNHPgRNKAeEIk_vuYhccqxVPRCe3MV6jWaqUc5L8HSt_-rD5AtXwZoxxsTv8dnQH8RqDN7o_XDz_]--></g></svg>